HIERARCHY
ROOT Hips
{
	OFFSET -3.958830 18.904000 13.208200
	CHANNELS 6 Xposition Yposition Zposition Zrotation Yrotation Xrotation 
	JOINT LHipJoint
	{
		OFFSET 0.000000 0.000000 0.000000
		CHANNELS 3 Zrotation Yrotation Xrotation
		JOINT LeftUpLeg
		{
			OFFSET 1.800000 -1.400000 0.085000
			CHANNELS 3 Zrotation Yrotation Xrotation
			JOINT LeftLeg
			{
				OFFSET 2.215000 -6.000000 0.000000
				CHANNELS 3 Zrotation Yrotation Xrotation
				JOINT LeftFoot
				{
					OFFSET 2.500000 -6.900000 0.000000
					CHANNELS 3 Zrotation Yrotation Xrotation
					JOINT LeftToeBase
					{
						OFFSET 0.200000 -0.500000 1.950000
						CHANNELS 3 Zrotation Yrotation Xrotation
						End Site
						{
							OFFSET 0.000000 0.000000 0.000000
						}
					}
				}
			}
		}
	}
	JOINT RHipJoint
	{
		OFFSET 0.000000 0.000000 0.000000
		CHANNELS 3 Zrotation Yrotation Xrotation
		JOINT RightUpLeg
		{
			OFFSET -1.800000 -1.400000 0.085000
			CHANNELS 3 Zrotation Yrotation Xrotation
			JOINT RightLeg
			{
				OFFSET -2.215000 -6.000000 0.000000
				CHANNELS 3 Zrotation Yrotation Xrotation
				JOINT RightFoot
				{
					OFFSET -2.500000 -6.900000 0.000000
					CHANNELS 3 Zrotation Yrotation Xrotation
					JOINT RightToeBase
					{
						OFFSET -0.200000 -0.500000 1.950000
						CHANNELS 3 Zrotation Yrotation Xrotation
						End Site
						{
							OFFSET 0.000000 0.000000 0.000000
						}
					}
				}
			}
		}
	}
	JOINT LowerBack
	{
		OFFSET 0.000000 0.000000 0.000000
		CHANNELS 3 Zrotation Yrotation Xrotation
		JOINT Spine
		{
			OFFSET -0.087000 1.940000 -0.288900
			CHANNELS 3 Zrotation Yrotation Xrotation
			JOINT Spine1
			{
				OFFSET 0.000000 1.950000 0.060000
				CHANNELS 3 Zrotation Yrotation Xrotation
				JOINT Neck
				{
					OFFSET 0.000000 0.000000 0.000000
					CHANNELS 3 Zrotation Yrotation Xrotation
					JOINT Neck1
					{
						OFFSET 0.000000 1.600000 0.340000
						CHANNELS 3 Zrotation Yrotation Xrotation
						JOINT Head
						{
							OFFSET 0.000000 1.667000 -0.240000
							CHANNELS 3 Zrotation Yrotation Xrotation
							End Site
							{
								OFFSET 0.000000 0.000000 0.000000
							}
						}
					}
				}
				JOINT LeftShoulder
				{
					OFFSET 0.000000 0.000000 0.000000
					CHANNELS 3 Zrotation Yrotation Xrotation
					JOINT LeftArm
					{
						OFFSET 2.700000 1.550000 -0.730000
						CHANNELS 3 Zrotation Yrotation Xrotation
						JOINT LeftForeArm
						{
							OFFSET 5.450000 0.000000 0.000000
							CHANNELS 3 Zrotation Yrotation Xrotation
							JOINT LeftHand
							{
								OFFSET 3.450000 0.000000 0.000000
								CHANNELS 3 Zrotation Yrotation Xrotation
								JOINT LeftHandIndex1
								{
									OFFSET 0.750000 0.000000 0.000000
									CHANNELS 3 Zrotation Yrotation Xrotation
									End Site
									{
										OFFSET 0.000000 0.000000 0.000000
									}
								}
							}
						}
					}
				}
				JOINT RightShoulder
				{
					OFFSET 0.000000 0.000000 0.000000
					CHANNELS 3 Zrotation Yrotation Xrotation
					JOINT RightArm
					{
						OFFSET -2.700000 1.550000 -0.730000
						CHANNELS 3 Zrotation Yrotation Xrotation
						JOINT RightForeArm
						{
							OFFSET -5.450000 0.000000 0.000000
							CHANNELS 3 Zrotation Yrotation Xrotation
							JOINT RightHand
							{
								OFFSET -3.450000 0.000000 0.000000
								CHANNELS 3 Zrotation Yrotation Xrotation
								JOINT RightHandIndex1
								{
									OFFSET -0.750000 0.000000 0.000000
									CHANNELS 3 Zrotation Yrotation Xrotation
									End Site
									{
										OFFSET 0.000000 0.000000 0.000000
									}
								}
							}
						}
					}
				}
			}
		}
	}
}
MOTION
Frames: 6
Frame Time: 0.016667
-0.282320 17.577400 -2.086310 -0.104854 19.825023 16.317723 -15.501964 13.608566 3.408625 3.117181 -2.578013 -26.114323 -1.692668 3.597667 2.696539 1.886441 5.247696 4.715744 -6.324460 -6.769790 -6.215720 17.843289 -10.122516 3.006626 -6.253999 2.374804 -16.330499 3.855033 -4.408191 -0.151430 1.858544 -5.291756 2.901982 -3.789510 6.202020 1.578410 -2.882199 -3.687594 -7.770267 9.127202 0.430339 2.345217 -3.839810 4.748169 -20.953667 8.538729 -3.708888 -13.741792 -4.563166 -9.462377 17.371892 -7.934050 1.417490 91.486350 11.954731 22.085836 -9.676446 20.822913 -1.325008 -4.230341 144.091052 33.278946 90.200392 -8.666602 2.927851 -2.217890 3.665280 -2.594630 0.276230 -25.595832 -10.629874 25.719916 -28.850272 -65.265269 20.321118 -178.938245 26.606667 -135.394418 3.766970 -2.112763 -1.043830 0.321590 3.588820 2.542210 
-0.270150 17.532590 -2.106420 -1.195485 18.906227 16.183761 -15.671180 13.895975 3.898849 5.255432 -3.597324 -27.137537 -2.632848 3.316432 3.571447 0.672927 3.437101 4.150736 -2.056590 -2.244890 -2.067960 17.521528 -10.065089 3.178531 -5.119482 2.582119 -17.044408 4.103174 -2.646805 1.344595 1.096181 -3.581654 3.670447 -1.282260 2.318540 0.635430 -2.253729 -4.341101 -8.628262 7.468672 -0.157673 2.429918 0.847825 5.312736 -23.177526 10.148464 -5.301358 -15.954484 -8.821549 -9.920767 21.350033 -11.955510 0.732050 55.643460 17.837628 24.942360 -6.620338 15.648803 2.090236 0.687361 137.501309 31.567288 74.088642 -6.266624 3.687774 -1.282960 1.721920 -1.363600 0.240360 -32.056801 -10.124856 21.611432 -36.649801 -54.386057 26.366074 -177.411039 34.889374 -138.091754 3.621928 -3.000885 -0.292180 -0.164120 1.022840 0.854790 
-0.268100 17.528770 -2.139740 -2.941261 15.544706 14.043213 -15.716375 13.876097 3.816119 7.770720 -2.953136 -25.624159 -3.920211 3.571931 4.183961 0.387189 3.028569 3.921315 -0.968300 -1.010010 -1.018240 17.464464 -10.228127 3.159751 -3.412010 2.207376 -16.091578 3.528709 -2.293266 2.568996 0.728787 -3.097562 3.656287 -0.591570 1.240090 0.298320 -2.001446 -3.846126 -8.604450 5.420547 3.098071 0.565822 6.017660 6.336405 -20.555094 10.101175 -5.715931 -16.121500 -10.112044 -11.726420 22.491560 -14.877410 -1.065490 39.810610 22.484916 26.441462 -4.421158 9.526749 2.820637 1.508007 136.614918 23.207328 55.610298 -5.421352 3.847279 -0.874990 1.011220 -0.828380 0.213350 -35.415242 -11.885022 17.781598 -34.574030 -50.462378 26.101436 -165.186846 41.279214 -118.073461 3.633771 -3.156833 -0.116990 -0.181300 0.350370 0.532580 
-0.243580 17.530760 -2.190500 -4.296886 16.964259 12.175433 -15.570953 13.693375 3.841405 9.507705 -2.662065 -26.117792 -5.646384 4.121783 5.738166 0.200428 3.151765 3.776434 -0.715070 -0.814020 -0.742270 17.584916 -10.537589 3.169476 -1.891469 2.210456 -15.225910 3.621844 -2.565958 5.144775 0.617890 -3.007866 3.629968 -0.451190 0.956840 0.186310 -2.410536 -2.991436 -8.587834 7.280271 5.197019 1.058558 4.731539 8.032836 -21.675412 7.882666 -4.744185 -15.476305 -8.998585 -15.006340 24.526253 -15.941560 -7.028390 33.531780 20.263401 20.625257 -3.922530 9.701561 -1.539278 0.987032 137.560067 18.119015 46.509008 -5.115377 3.750067 -0.650270 0.771460 -0.711330 0.156750 -30.335311 -9.320613 12.478457 -41.708294 -50.329054 25.660195 -141.985002 46.704223 -75.081074 3.476176 -1.743809 -0.134490 -0.112230 0.265240 0.393870 
-0.231340 17.532030 -2.283900 -5.233608 22.013988 6.983254 -15.458078 13.712630 3.754874 11.069353 -1.851758 -24.747934 -6.390603 4.685972 8.007780 -0.181617 3.450140 3.526206 -0.441250 -0.609420 -0.368430 17.618237 -10.959805 3.242170 -1.483528 1.680929 -10.977468 4.086294 -3.166165 6.812276 0.361882 -3.225979 3.410957 -0.257560 0.656710 0.141110 -2.812827 -2.183921 -8.708403 11.886183 6.424443 6.375679 -0.918268 9.279081 -23.858356 5.674265 0.086081 -14.795063 -2.245370 -13.916672 32.973195 -17.659970 -8.142710 21.784460 15.988552 12.604568 -3.010532 10.200410 -2.966432 1.688637 138.307225 13.967952 39.488592 -4.819135 3.729963 -0.291440 0.541990 -0.519820 0.024320 -26.228059 -0.851603 8.567548 -16.041278 -24.643367 1.144745 -113.641622 9.824012 -0.821515 3.312320 -2.152700 -0.214590 0.026240 0.270130 0.162250 
-0.238290 17.531450 -2.369730 -5.773165 23.703607 0.641375 -15.415949 14.282094 3.668668 12.919400 -0.933475 -21.669843 -6.952224 5.574260 11.011224 -0.266460 3.915783 3.271629 -0.279930 -0.442450 -0.268700 17.571117 -10.926586 3.265594 -1.689843 0.486931 -5.360434 3.508630 -3.553196 7.393120 0.120048 -3.415855 3.320189 -0.161820 0.527820 0.042530 -2.989947 -3.100413 -8.881430 17.984876 3.800196 13.296057 -6.538949 9.078466 -22.646870 5.642806 -1.289743 -15.410583 -5.024598 -9.108944 42.701274 -11.635980 -10.426870 12.744660 11.511458 9.040451 -2.712971 13.111307 3.031781 2.400625 132.898066 8.926104 27.517291 -4.497254 3.578405 -0.006280 0.305520 -0.364390 0.016120 -23.066835 6.689040 10.318882 -20.354194 -7.399116 -2.688241 -111.488454 -11.819217 22.795729 3.133864 -1.841638 -0.261320 0.204400 0.274460 0.105650 
